<?xml version="1.0" encoding="utf-8"?>
<!-- Generator: Adobe Illustrator 16.0.4, SVG Export Plug-In . SVG Version: 6.00 Build 0)  -->
<!DOCTYPE svg PUBLIC "-//W3C//DTD SVG 1.1//EN" "http://www.w3.org/Graphics/SVG/1.1/DTD/svg11.dtd">
<svg version="1.1" id="Layer_1" xmlns:sketch="http://www.bohemiancoding.com/sketch/ns"
	 xmlns="http://www.w3.org/2000/svg" xmlns:xlink="http://www.w3.org/1999/xlink" x="0px" y="0px" width="284px" height="37px"
	 viewBox="0 0 284 37" enable-background="new 0 0 284 37" xml:space="preserve">
<title>Imported Layers Copy 6</title>
<desc>Created with Sketch.</desc>
<g id="Page-1" sketch:type="MSPage">
	<g id="Imported-Layers-Copy-6" sketch:type="MSLayerGroup">
		<path id="Fill-1" sketch:type="MSShapeGroup" fill="#FFFFFF" d="M24.005,15.062c3.17,1.634,5.897,5.604,5.897,10.211
			c0,8.477-7.684,11.106-14.87,11.106c-2.729,0-5.556-1.041-7.932-2.333l-5.355,2.333h-1.24L0.156,24.082h1.589
			C4.224,29.934,9.08,35.04,15.828,35.04c2.078,0,4.754-0.845,4.754-3.321c0-2.928-3.221-4.166-5.45-5.154l-3.769-1.686
			C4.171,21.654,0.504,17.341,0.504,11.94c0-7.238,5.208-11.402,12.144-11.402c2.78,0,5.454,0.843,7.933,2.033l5.358-2.033h1.14
			l0.396,11.352h-1.342C23.656,6.535,19.096,1.874,12.851,1.874c-1.886,0-4.217,0.994-4.217,3.226c0,2.676,3.271,3.765,5.256,4.807
			L24.005,15.062"/>
		<path id="Fill-2" sketch:type="MSShapeGroup" fill="#FFFFFF" d="M46.314,3.463v8.723h5.599v1.188h-5.599v17.499
			c0,1.09-0.101,2.53,1.385,2.53c2.53,0,3.524-4.065,3.769-5.999h1.092c-0.495,6.94-4.512,8.975-10.907,8.975
			c-6.002,0-7.488-1.687-7.488-8.131V13.374h-2.924v-1.188c6.147,0,11.008-3.669,14.13-8.723H46.314"/>
		<path id="Fill-3" sketch:type="MSShapeGroup" fill="#FFFFFF" d="M71.054,15.856c0-2.232-0.548-3.024-2.829-3.024
			c-0.893,0-1.982,0.098-1.982,0.542c0,0.646,1.835,1.244,1.835,3.473c0,3.419-3.967,3.967-6.596,3.967
			c-2.431,0-5.453-0.994-5.453-3.919c0-2.18,1.238-5.403,12.346-5.403c2.478,0,6.543,0.346,8.922,0.941
			c3.276,0.745,5.354,2.184,5.354,5.898v13.285c0,0.545,0.197,1.19,0.846,1.19c0.94,0,1.434-0.696,2.033-1.288v1.734
			c-1.89,2.182-4.957,3.125-7.736,3.125c-2.828,0-5.06-0.648-6.347-3.422c-2.481,2.727-6.098,3.422-9.62,3.422
			c-3.764,0-7.732-1.636-7.732-6.049c0-3.271,1.736-6.645,8.678-7.584c2.18-0.299,3.616-0.396,5.847-0.396h2.432V15.856
			L71.054,15.856z M71.054,23.538h-1.787c-3.075,0-2.676,3.521-2.676,5.8c0,1.438-0.098,4.115,1.882,4.115
			c2.727,0,2.581-3.123,2.581-4.957V23.538L71.054,23.538z"/>
		<path id="Fill-4" sketch:type="MSShapeGroup" fill="#FFFFFF" d="M100.401,3.463v8.723h5.605v1.188h-5.605v17.499
			c0,1.09-0.096,2.53,1.392,2.53c2.526,0,3.519-4.065,3.769-5.999h1.09c-0.499,6.94-4.512,8.975-10.907,8.975
			c-6,0-7.488-1.687-7.488-8.131V13.374h-2.924v-1.188c6.15,0,11.005-3.669,14.128-8.723H100.401"/>
		<path id="Fill-5" sketch:type="MSShapeGroup" fill="#FFFFFF" d="M120.186,25.47v2.083c0,3.967,0.743,7.089,5.355,7.089
			c3.668,0,6.989-2.327,9.072-5.202l0.941,0.643c-2.974,4.312-7.139,6.297-12.493,6.297c-2.876,0-5.456-0.201-8.132-1.339
			c-4.212-1.786-7.239-5.256-7.239-11.106c0-7.929,6.545-12.441,14.032-12.441c8.578,0,14.528,5.204,14.427,13.978H120.186
			L120.186,25.47z M124.447,24.281V17.44c0-1.733,0.396-4.757-2.229-4.757c-2.286,0-2.033,3.221-2.033,4.757v6.841H124.447
			L124.447,24.281z"/>
		<path id="Fill-6" sketch:type="MSShapeGroup" fill="#FFFFFF" d="M148.836,35.635v-1.34h1.234c2.134,0,2.781-2.43,2.781-4.707
			V5.246c-0.941-1.241-1.733-2.676-3.27-2.676h-0.746V1.281h18.842l13.433,18.39V5.1c0-1.39-1.536-2.482-3.37-2.482h-0.993V1.281
			h10.213v1.337h-1.483c-2.58,0-2.529,1.935-2.529,6v27.017h-8.332L154.588,8.07v21.518c0,2.277,0.492,4.707,2.877,4.707h1.583v1.34
			H148.836"/>
		<path id="Fill-7" sketch:type="MSShapeGroup" fill="#FFFFFF" d="M198.513,25.47v2.083c0,3.967,0.746,7.089,5.354,7.089
			c3.67,0,6.99-2.327,9.072-5.202l0.943,0.643c-2.977,4.312-7.141,6.297-12.492,6.297c-2.878,0-5.459-0.201-8.132-1.339
			c-4.216-1.786-7.242-5.256-7.242-11.106c0-7.929,6.548-12.441,14.031-12.441c8.579,0,14.531,5.204,14.431,13.978H198.513
			L198.513,25.47z M202.777,24.281V17.44c0-1.733,0.396-4.757-2.232-4.757c-2.277,0-2.032,3.221-2.032,4.757v6.841H202.777
			L202.777,24.281z"/>
		<path id="Fill-8" sketch:type="MSShapeGroup" fill="#FFFFFF" d="M212.939,12.187h16.31v1.188h-1.583l6.246,15.666l2.231-5.798
			l-3.668-9.868h-2.185v-1.188h16.857v1.188h-2.775l5.901,15.321l4.31-11.203c1.291-3.374,0.102-4.064-0.742-4.064h-0.94v-1.241
			h7.585v1.188c-2.876,0-3.769,2.53-4.611,4.762l-6.694,17.499h-8.228l-4.066-10.463l-4.016,10.463h-8.676l-8.775-22.261h-2.48
			V12.187"/>
		<path id="Fill-9" sketch:type="MSShapeGroup" fill="#FFFFFF" d="M261.826,27.308c1.732,4.161,6.94,7.878,11.502,7.878
			c1.484,0,3.419-0.246,3.419-2.127c0-2.432-3.968-3.077-7.931-4.516c-3.967-1.437-7.934-3.565-7.934-9.02
			c0-5.105,4.463-8.031,9.221-8.031c2.23,0,3.821,0.448,6.891,1.489l3.869-1.489h1.09l0.295,8.478h-1.137
			c-1.688-3.768-5.651-7.287-9.968-7.287c-1.585,0-2.922,0.495-2.922,2.328c0,1.786,2.974,2.577,4.263,3.026l5.305,1.933
			c3.422,1.238,5.602,4.262,5.602,8.028c0,2.578-1.041,5.208-3.175,6.694c-2.18,1.485-4.806,1.687-7.336,1.687
			c-2.083,0-4.164-1.041-6.247-1.588l-4.063,1.588h-1.339l-0.348-9.071H261.826"/>
		<path id="Fill-10" sketch:type="MSShapeGroup" fill="#FFFFFF" d="M51.422,2.83c-1.008,0.086-1.402,1.118-1.603,1.958h-0.264
			L49.6,2.597h6.293l0.046,2.192h-0.27c-0.196-0.841-0.595-1.873-1.598-1.958v5.492h0.782v0.233H50.63V8.322h0.792V2.83"/>
		<path id="Fill-11" sketch:type="MSShapeGroup" fill="#FFFFFF" d="M59.119,8.349h0.301v0.207h-2.842V8.349h0.467V2.801h-0.453
			V2.597c0.84,0,1.685-0.103,2.526-0.13v2.727c0.326-0.516,0.906-0.829,1.503-0.829c1.025,0,1.406,0.638,1.406,1.534v2.45h0.454
			v0.207h-2.828V8.349h0.3V5.854c0-0.264,0.045-0.857-0.31-0.857c-0.161,0-0.526,0.104-0.526,1.529V8.349"/>
		<path id="Fill-12" sketch:type="MSShapeGroup" fill="#FFFFFF" d="M64.883,6.794v0.359c0,0.689,0.129,1.229,0.926,1.229
			c0.639,0,1.215-0.404,1.578-0.903l0.163,0.114c-0.515,0.746-1.238,1.092-2.169,1.092c-0.497,0-0.943-0.036-1.409-0.236
			c-0.729-0.307-1.256-0.91-1.256-1.924c0-1.376,1.135-2.161,2.431-2.161c1.492,0,2.523,0.907,2.503,2.429H64.883L64.883,6.794z
			 M65.622,6.588V5.402c0-0.302,0.069-0.83-0.389-0.83c-0.393,0-0.35,0.562-0.35,0.83v1.186H65.622L65.622,6.588z"/>
	</g>
</g>
</svg>
